<?xml version="1.0" standalone="no"?>
<!DOCTYPE svg PUBLIC "-//W3C//DTD SVG 20010904//EN"
 "http://www.w3.org/TR/2001/REC-SVG-20010904/DTD/svg10.dtd">
<svg version="1.0" xmlns="http://www.w3.org/2000/svg"
 width="700.000000pt" height="700.000000pt" viewBox="0 0 700.000000 700.000000"
 preserveAspectRatio="xMidYMid meet">
<metadata>
Created by potrace 1.11, written by Peter Selinger 2001-2013
</metadata>
<g transform="translate(0.000000,700.000000) scale(0.100000,-0.100000)"
fill="#000000" stroke="none">
<path d="M6850 6977 c-13 -7 -30 -23 -37 -37 -6 -14 -32 -69 -58 -122 -86
-185 -200 -275 -386 -304 -168 -26 -257 -65 -355 -156 -82 -75 -186 -243 -224
-361 -11 -36 -13 -38 -43 -30 -61 15 -149 8 -197 -16 -25 -13 -99 -76 -165
-141 -75 -73 -133 -122 -154 -129 -19 -6 -35 -10 -36 -9 -2 2 -12 22 -24 46
-31 60 -93 120 -158 149 -150 69 -342 0 -419 -149 -13 -27 -26 -48 -27 -48 -2
0 -25 7 -51 16 -65 22 -176 16 -238 -14 -65 -32 -125 -94 -156 -160 -31 -69
-35 -183 -8 -246 9 -22 15 -40 14 -41 -2 0 -22 -9 -46 -20 -51 -22 -127 -100
-152 -158 -43 -97 -34 -203 24 -300 32 -54 33 -55 13 -61 -12 -3 -22 -4 -22
-3 -1 1 -15 31 -32 67 -80 171 -258 283 -448 282 -142 -1 -252 -47 -351 -146
-41 -41 -72 -85 -95 -132 l-34 -71 -65 24 c-129 49 -271 41 -398 -23 -245
-122 -339 -399 -228 -666 6 -13 -7 -23 -61 -49 -80 -38 -184 -137 -225 -215
-78 -146 -77 -325 4 -476 40 -75 138 -167 222 -208 36 -18 66 -36 66 -40 0 -5
-32 8 -71 28 -66 34 -78 37 -153 36 -63 0 -92 -5 -127 -23 -69 -33 -122 -83
-154 -144 l-29 -54 -35 15 c-22 10 -67 16 -116 16 -68 1 -89 -3 -136 -27 -67
-32 -133 -100 -161 -165 -29 -64 -33 -163 -11 -227 l18 -50 -55 -31 c-231
-130 -222 -459 17 -575 l42 -20 -16 -37 c-8 -21 -67 -90 -132 -157 -94 -96
-121 -130 -134 -169 -22 -63 -21 -139 2 -196 l17 -45 -29 -70 c-39 -92 -107
-195 -164 -244 -65 -58 -137 -88 -249 -106 -165 -27 -255 -68 -353 -159 -104
-99 -177 -222 -237 -402 -40 -121 -39 -150 9 -190 25 -21 38 -25 70 -21 55 8
73 29 102 122 35 116 105 250 164 316 70 78 142 114 271 135 186 29 287 80
403 204 57 60 88 106 128 183 l52 103 71 0 c97 -1 137 22 271 155 78 77 122
113 152 123 l42 15 21 -44 c46 -94 149 -167 257 -181 118 -14 262 66 319 177
27 54 27 54 54 39 65 -35 193 -29 273 11 88 45 158 149 171 254 6 44 -6 118
-29 175 -4 11 5 20 32 29 53 19 137 103 162 160 29 68 35 144 18 211 -14 52
-14 53 1 30 97 -147 293 -243 461 -225 71 8 182 49 243 91 64 45 132 126 163
197 22 49 34 65 45 61 179 -71 306 -70 458 3 220 107 331 408 232 630 -26 59
-25 60 10 68 43 10 139 75 192 132 140 151 168 375 71 567 -47 92 -161 194
-256 227 -31 11 -36 17 -31 34 10 30 12 31 42 2 79 -75 238 -96 339 -44 73 38
116 78 149 141 l28 53 35 -15 c55 -24 184 -21 243 5 152 69 232 244 181 394
l-19 57 43 21 c63 31 119 86 150 149 24 49 28 69 28 142 -1 72 -5 93 -28 137
-33 65 -88 119 -148 147 l-46 22 16 42 c12 29 54 80 133 160 64 64 123 132
132 150 24 47 34 114 26 169 -15 97 97 351 202 456 63 63 128 91 270 116 65
12 143 32 174 46 170 75 309 235 389 449 31 81 27 114 -17 151 -32 27 -69 32
-108 12z m-1790 -1598 c221 -85 355 -322 311 -551 -34 -170 -150 -309 -314
-375 -157 -63 -397 -26 -456 70 -18 30 -54 66 -147 148 -38 33 -69 152 -68
254 5 348 348 579 674 454z m-1487 -1090 c277 -43 518 -235 618 -492 40 -105
50 -162 50 -287 -1 -210 -80 -391 -236 -545 -158 -154 -375 -236 -586 -221
-269 18 -516 180 -638 416 -76 148 -85 187 -85 360 0 170 9 209 80 350 87 174
252 317 438 381 136 47 233 57 359 38z m-1335 -1696 c45 -16 60 -28 105 -88
33 -44 74 -84 114 -110 47 -31 66 -51 81 -85 134 -298 -84 -651 -422 -686
-129 -13 -288 47 -387 146 -197 196 -197 506 0 700 70 69 140 109 231 135 69
19 204 13 278 -12z m761 -265 l11 -33 -20 24 c-11 12 -17 27 -14 32 8 14 11
11 23 -23z"/>
<path d="M4792 4995 c-60 -50 -47 -142 24 -171 72 -30 144 18 144 98 0 86
-100 130 -168 73z"/>
<path d="M3305 3970 c-64 -67 -20 -170 73 -170 35 0 49 6 73 29 65 66 20 171
-73 171 -36 0 -50 -6 -73 -30z"/>
<path d="M3689 3871 c-58 -58 -28 -159 52 -176 76 -17 145 67 115 139 -30 71
-114 90 -167 37z"/>
<path d="M3055 3715 c-51 -28 -71 -80 -51 -130 30 -70 114 -88 167 -36 80 80
-17 218 -116 166z"/>
<path d="M3804 3502 c-50 -40 -58 -104 -18 -151 67 -80 199 -18 180 85 -14 69
-110 109 -162 66z"/>
<path d="M3164 3335 c-91 -38 -84 -164 11 -195 46 -15 97 8 120 56 21 44 13
83 -23 116 -35 33 -69 40 -108 23z"/>
<path d="M3544 3236 c-42 -18 -64 -52 -64 -97 0 -46 38 -95 79 -104 61 -13
131 43 131 105 0 71 -81 124 -146 96z"/>
<path d="M2013 2215 c-101 -43 -70 -194 40 -195 49 0 73 13 92 50 32 61 11
120 -51 146 -40 17 -41 17 -81 -1z"/>
</g>
</svg>
